<svg width="48" height="48" viewBox="0 0 48 48" fill="none" xmlns="http://www.w3.org/2000/svg">
<path d="M24.007 45.419C23.433 45.419 22.864 45.269 22.361 44.979L17.121 41.876C16.338 41.438 16.72 41.283 16.978 41.194C18.022 40.829 18.233 40.746 19.347 40.113C19.464 40.046 19.617 40.07 19.737 40.141L23.763 42.53C23.908 42.609 24.115 42.609 24.249 42.53L39.946 33.469C40.091 33.386 40.186 33.218 40.186 33.045V14.932C40.186 14.751 40.092 14.59 39.943 14.5L24.253 5.44601C24.108 5.36001 23.915 5.36001 23.77 5.44601L8.082 14.499C7.93 14.585 7.833 14.754 7.833 14.927V33.041C7.833 33.214 7.927 33.379 8.077 33.461L12.376 35.944C14.71 37.111 16.136 35.736 16.136 34.353V16.476C16.136 16.221 16.336 16.024 16.592 16.024H18.58C18.828 16.024 19.032 16.22 19.032 16.476V34.362C19.032 37.474 17.335 39.262 14.384 39.262C13.476 39.262 12.761 39.262 10.765 38.28L6.647 35.907C5.629 35.317 5 34.216 5 33.042V14.928C5 13.749 5.629 12.649 6.646 12.067L22.36 3.00201C23.354 2.44001 24.674 2.44001 25.661 3.00201L41.355 12.071C42.367 12.656 43 13.753 43 14.932V33.046C43 34.221 42.367 35.317 41.354 35.907L25.66 44.971C25.157 45.262 24.587 45.411 24.006 45.411" fill="#21A366"/>
<path d="M28.856 32.937C21.988 32.937 20.548 29.784 20.548 27.14C20.548 26.889 20.751 26.688 21.003 26.688H23.031C23.255 26.688 23.444 26.851 23.479 27.072C23.785 29.138 24.697 30.18 28.85 30.18C32.158 30.18 33.565 29.433 33.565 27.678C33.565 26.668 33.164 25.918 28.025 25.415C23.726 24.991 21.07 24.044 21.07 20.606C21.07 17.439 23.742 15.553 28.217 15.553C33.243 15.553 35.734 17.298 36.048 21.046C36.06 21.176 36.013 21.301 35.926 21.396C35.84 21.486 35.718 21.541 35.592 21.541H33.553C33.341 21.541 33.156 21.392 33.113 21.187C32.622 19.014 31.435 18.319 28.209 18.319C24.598 18.319 24.178 19.576 24.178 20.519C24.178 21.662 24.673 21.996 29.545 22.641C34.37 23.281 36.661 24.185 36.661 27.576C36.661 30.994 33.808 32.955 28.834 32.955" fill="#21A366"/>
</svg>
