<svg width="48" height="48" viewBox="0 0 48 48" fill="none" xmlns="http://www.w3.org/2000/svg">
<path d="M24 9.604C18.411 9.604 14.653 12.043 12.724 16.922C12.524 17.427 13.141 17.842 13.54 17.473C15.575 15.591 17.862 14.968 20.4 15.602C22.226 16.058 23.531 17.383 24.976 18.849C27.328 21.236 30.051 24 36 24C41.589 24 45.348 21.56 47.276 16.681C47.476 16.176 46.859 15.761 46.46 16.13C44.425 18.012 42.138 18.636 39.6 18.002C37.775 17.546 36.47 16.221 35.025 14.755C32.672 12.367 29.948 9.604 24 9.604ZM12 24C6.411 24 2.652 26.44 0.724 31.319C0.524 31.824 1.141 32.239 1.54 31.87C3.575 29.988 5.862 29.364 8.4 29.999C10.225 30.456 11.53 31.78 12.975 33.245C15.328 35.633 18.052 38.397 24 38.397C29.589 38.397 33.348 35.957 35.276 31.078C35.476 30.573 34.859 30.158 34.46 30.527C32.425 32.409 30.138 33.033 27.6 32.398C25.774 31.942 24.469 30.617 23.024 29.152C20.672 26.764 17.949 24 12 24Z" fill="url(#paint0_linear_398_25)"/>
<defs>
<linearGradient id="paint0_linear_398_25" x1="21.861" y1="8.237" x2="25.703" y2="36.552" gradientUnits="userSpaceOnUse">
<stop stop-color="#00C1E0"/>
<stop offset="1" stop-color="#009BB8"/>
</linearGradient>
</defs>
</svg>
